<svg width="30" height="30" viewBox="0 0 30 30" fill="none" xmlns="http://www.w3.org/2000/svg">
<rect width="30" height="30" fill="#EF0005"/>
<path fill-rule="evenodd" clip-rule="evenodd" d="M7 7V23.1686V23.875H7.69988H17.7316V22.4622H8.39977V7H7ZM23.1751 7H13.1046V8.41279H22.4752V23.875H23.875V7.7064V7H23.1751ZM9.02189 7V20.1468V20.5392H9.41071H12.638H12.7968L12.9103 20.4269L18.3926 14.9987V23.875H19.1702V14.064V13.1292L18.5091 13.7838L12.4791 19.7544H9.79954V7H9.02189ZM10.3439 7V18.8125V19.2049H10.7327H12.0547H12.2145L12.3281 19.0916L18.9411 12.4942H19.7146V23.875H20.4922V12.1017V11.7093H20.1034H18.7814H18.6217L18.5081 11.8226L11.895 18.4201H11.1215V7H10.3439ZM11.6659 7V16.9288V17.872L12.3288 17.2071L18.3974 11.1206H21.0755V23.875H21.8531V10.7282V10.3358H21.4643H18.237H18.0767L17.963 10.4498L12.4435 15.9855V7H11.6659Z" fill="white"/>
</svg>
