<svg width="25" height="25" viewBox="0 0 25 25" fill="none" xmlns="http://www.w3.org/2000/svg">
<rect width="25" height="25" rx="5" fill="#282A33"/>
<path fill-rule="evenodd" clip-rule="evenodd" d="M20.1184 8.53226C20.2386 8.15145 20.1184 7.87447 19.586 7.87447H17.8173C17.3708 7.87447 17.1648 8.1168 17.0446 8.3765C17.0446 8.3765 16.1344 10.5923 14.8637 12.029C14.4515 12.4445 14.2627 12.5829 14.0394 12.5829C13.9192 12.5829 13.7647 12.4445 13.7647 12.0636V8.51494C13.7647 8.06488 13.6273 7.85715 13.2495 7.85715H10.4676C10.1929 7.85715 10.0212 8.06488 10.0212 8.27261C10.0212 8.7054 10.6565 8.80924 10.7252 10.021V12.6522C10.7252 13.2235 10.6222 13.3273 10.3989 13.3273C9.79791 13.3273 8.33829 11.0942 7.46251 8.54958C7.29076 8.04755 7.11906 7.85715 6.6726 7.85715H4.88666C4.37151 7.85715 4.28564 8.09953 4.28564 8.35918C4.28564 8.82656 4.88666 11.1808 7.08469 14.2967C8.54436 16.4259 10.6222 17.5684 12.494 17.5684C13.6273 17.5684 13.7647 17.3087 13.7647 16.876V15.2661C13.7647 14.7468 13.8677 14.6603 14.2283 14.6603C14.4859 14.6603 14.9495 14.7987 15.997 15.82C17.1991 17.0318 17.4051 17.5857 18.0749 17.5857H19.8436C20.3588 17.5857 20.5992 17.3261 20.4618 16.824C20.3073 16.3221 19.7234 15.595 18.9678 14.7295C18.5557 14.2448 17.9375 13.7082 17.7486 13.4485C17.491 13.1023 17.5597 12.9638 17.7486 12.6522C17.7315 12.6522 19.8951 9.57092 20.1184 8.53226Z" fill="white"/>
</svg>
